<svg xmlns="http://www.w3.org/2000/svg" xmlns:xlink="http://www.w3.org/1999/xlink" viewBox="0 0 113.13 116.07"><defs><style>.cls-1{fill:#fff;}.cls-2{fill:url(#linear-gradient);}.cls-3{fill:url(#linear-gradient-2);}.cls-4{fill:url(#linear-gradient-3);}</style><linearGradient id="linear-gradient" x1="26.88" y1="58.33" x2="59.71" y2="58.33" gradientUnits="userSpaceOnUse"><stop offset="0" stop-color="#4e0380"/><stop offset="1" stop-color="#553bd2"/></linearGradient><linearGradient id="linear-gradient-2" x1="61.52" y1="63.74" x2="92.11" y2="63.74" xlink:href="#linear-gradient"/><linearGradient id="linear-gradient-3" x1="67.07" y1="41.89" x2="86.57" y2="41.89" xlink:href="#linear-gradient"/></defs><g id="Layer_2" data-name="Layer 2"><g id="Layer_1-2" data-name="Layer 1"><ellipse class="cls-1" cx="56.57" cy="58.03" rx="56.57" ry="58.03"/><path class="cls-2" d="M59.71,68.46a10,10,0,0,1-1,4.65,9.6,9.6,0,0,1-2.84,3.36,13.22,13.22,0,0,1-4.19,2.06,17.82,17.82,0,0,1-5.08.71H26.88V37.42H48.69a7.87,7.87,0,0,1,3.85.94,9.64,9.64,0,0,1,2.93,2.45,11.37,11.37,0,0,1,1.86,3.41A11.78,11.78,0,0,1,58,48.08a11.64,11.64,0,0,1-1.49,5.74,9.23,9.23,0,0,1-4.36,4,10.49,10.49,0,0,1,5.54,3.8A11.21,11.21,0,0,1,59.71,68.46ZM34.8,44.37V54.91H45.36a4.66,4.66,0,0,0,3.42-1.41,5.3,5.3,0,0,0,1.4-3.89,5.48,5.48,0,0,0-1.29-3.83,4.14,4.14,0,0,0-3.18-1.41ZM51.73,66.93a6.23,6.23,0,0,0-.37-2.15,6,6,0,0,0-1-1.8,4.74,4.74,0,0,0-1.5-1.21A4.11,4.11,0,0,0,47,61.33H34.8v11H46.57a5,5,0,0,0,2-.42,4.8,4.8,0,0,0,1.63-1.14,5.35,5.35,0,0,0,1.09-1.74A5.63,5.63,0,0,0,51.73,66.93Z"/><path class="cls-3" d="M76.88,79.24A15.84,15.84,0,0,1,70.53,78a14.48,14.48,0,0,1-7.92-8.25,15.93,15.93,0,0,1-1.09-5.87,17,17,0,0,1,1.06-6,14.48,14.48,0,0,1,7.93-8.36,16,16,0,0,1,6.42-1.25A15.57,15.57,0,0,1,83.3,49.5c6.16,2.76,9.06,8.88,8.79,15.53A6.56,6.56,0,0,1,92,66.17H69.42a9,9,0,0,0,.84,3.14A7.8,7.8,0,0,0,72,71.65a7.48,7.48,0,0,0,2.39,1.48,7.75,7.75,0,0,0,2.78.52,8.41,8.41,0,0,0,4.2-1.12,5.8,5.8,0,0,0,2.7-2.94l6.4,1.83A13.21,13.21,0,0,1,85.3,77,15.56,15.56,0,0,1,76.88,79.24Zm7.56-18A8,8,0,0,0,82,55.81a7.48,7.48,0,0,0-10.32,0,7.93,7.93,0,0,0-1.64,2.34,8.24,8.24,0,0,0-.75,3Z"/><path class="cls-4" d="M67.07,39.4h19.5v5H67.07Z"/></g></g></svg>