<svg xmlns="http://www.w3.org/2000/svg" xmlns:xlink="http://www.w3.org/1999/xlink" viewBox="0 0 109.82 116.46"><defs><style>.cls-1{fill:#fff;}.cls-2{fill:url(#linear-gradient);}.cls-3{fill:url(#linear-gradient-2);}.cls-4{fill:url(#linear-gradient-3);}</style><linearGradient id="linear-gradient" x1="68.18" y1="40.2" x2="75.73" y2="40.2" gradientUnits="userSpaceOnUse"><stop offset="0" stop-color="#4e0380"/><stop offset="1" stop-color="#553bd2"/></linearGradient><linearGradient id="linear-gradient-2" x1="39.32" y1="58.15" x2="71.03" y2="58.15" xlink:href="#linear-gradient"/><linearGradient id="linear-gradient-3" x1="22.72" y1="58.15" x2="87.1" y2="58.15" xlink:href="#linear-gradient"/></defs><g id="Layer_2" data-name="Layer 2"><g id="Layer_1-2" data-name="Layer 1"><ellipse class="cls-1" cx="54.91" cy="58.23" rx="54.91" ry="58.23"/><path class="cls-2" d="M72,36.2a4,4,0,1,0,3.78,4A3.89,3.89,0,0,0,72,36.2Z"/><path class="cls-3" d="M55.17,41.33c-8.74,0-15.85,7.55-15.85,16.82S46.43,75,55.17,75,71,67.42,71,58.15,63.92,41.33,55.17,41.33Zm0,27.59C49.57,68.92,45,64.09,45,58.15s4.55-10.77,10.15-10.77,10.16,4.83,10.16,10.77S60.77,68.92,55.17,68.92Z"/><path class="cls-4" d="M67.76,92.28H42.06c-10.67,0-19.34-9.2-19.34-20.5V44.52C22.72,33.21,31.39,24,42.06,24h25.7c10.66,0,19.34,9.2,19.34,20.51V71.78C87.1,83.08,78.42,92.28,67.76,92.28ZM42.06,30.43c-7.33,0-13.28,6.32-13.28,14.09V71.78c0,7.76,5.95,14.08,13.28,14.08h25.7C75.08,85.86,81,79.54,81,71.78V44.52c0-7.77-6-14.09-13.28-14.09Z"/></g></g></svg>