<svg xmlns="http://www.w3.org/2000/svg" xmlns:xlink="http://www.w3.org/1999/xlink" viewBox="0 0 114.65 117.38"><defs><style>.cls-1{fill:#fff;}.cls-2{fill:url(#linear-gradient);}.cls-3{fill:url(#linear-gradient-2);}</style><linearGradient id="linear-gradient" x1="32.4" y1="56.94" x2="45.26" y2="56.94" gradientUnits="userSpaceOnUse"><stop offset="0" stop-color="#4e0380"/><stop offset="1" stop-color="#553bd2"/></linearGradient><linearGradient id="linear-gradient-2" x1="51.34" y1="65.56" x2="85.91" y2="65.56" xlink:href="#linear-gradient"/></defs><g id="Layer_2" data-name="Layer 2"><g id="Layer_1-2" data-name="Layer 1"><ellipse class="cls-1" cx="57.32" cy="58.69" rx="57.32" ry="58.69"/><path class="cls-2" d="M33.28,47.76H44.39V84.27H33.28Zm5.56-18.15a6.59,6.59,0,1,1-6.44,6.58,6.5,6.5,0,0,1,6.44-6.58"/><path class="cls-3" d="M51.34,47.76H62v5h.14a11.62,11.62,0,0,1,10.5-5.89c11.22,0,13.29,7.55,13.29,17.39v20H74.84V66.52c0-4.24-.09-9.68-5.77-9.68s-6.65,4.61-6.65,9.37V84.27H51.34Z"/></g></g></svg>